<?xml version="1.0" encoding="UTF-8"?>
<!DOCTYPE svg PUBLIC "-//W3C//DTD SVG 1.1//EN" "http://www.w3.org/Graphics/SVG/1.1/DTD/svg11.dtd">
<!-- Creator: CorelDRAW X8 -->
<svg xmlns="http://www.w3.org/2000/svg" xml:space="preserve" width="1417px" height="1594px" version="1.1" style="shape-rendering:geometricPrecision; text-rendering:geometricPrecision; image-rendering:optimizeQuality; fill-rule:evenodd; clip-rule:evenodd"
viewBox="0 0 6140111 6907142"
 xmlns:xlink="http://www.w3.org/1999/xlink">
 <defs>
  <style type="text/css">
   <![CDATA[
    .str0 {stroke:#373435;stroke-width:3900.47}
    .fil0 {fill:#373435}
   ]]>
  </style>
 </defs>
 <g id="Layer_x0020_1">
  <metadata id="CorelCorpID_0Corel-Layer"/>
  <path class="fil0 str0" d="M4604099 6138161c0,1331 5,2661 10,3987 5,-1336 11,-2677 -10,-3987zm-1534041 -26c0,1336 5,2667 10,4003 5,-1336 10,-2667 -10,-4003zm-1534041 0c0,423406 343635,767036 767031,767036 422059,0 764860,-341475 767020,-763033 2155,421568 344961,763033 767021,763033 422059,0 764855,-341470 767020,-763023 2150,421563 344951,763043 767016,763043 423400,0 767031,-343635 767031,-767030l5 -3068103c0,-1694631 -1373477,-3068108 -3068103,-3068108 -1694605,0 -3068108,1373477 -3068108,3068108l0 3068103c0,423395 343636,767030 767031,767030 423395,0 767036,-343635 767036,-767056zm-1022721 26l0 -3068103c0,-1409784 1146952,-2556762 2556762,-2556762 1409810,0 2556762,1146952 2556762,2556762l0 3068103c0,141123 -114541,255685 -255685,255685 -141149,0 -255685,-114536 -255685,-255685l-511330 -26 -511346 0c0,141149 -114562,255686 -255685,255686 -141129,0 -255686,-114537 -255686,-255686l-511325 0 -511345 0c-25,141149 -114562,255686 -255711,255686 -141118,0 -255680,-114537 -255680,-255686l-511325 26 -511351 0c0,141123 -114541,255685 -255685,255685 -141149,0 -255685,-114536 -255685,-255685z"/>
  <path class="fil0 str0" d="M2047367 6137644c0,-282272 -229104,-511351 -511350,-511351 -282272,0 -511345,229079 -511345,511346l1022695 5z"/>
  <path class="fil0 str0" d="M3069045 5626293c-282273,0 -511346,229079 -511346,511346l1022686 5c0,-282272 -229068,-511351 -511340,-511351z"/>
  <path class="fil0 str0" d="M4603080 5626293c-282267,0 -511345,229079 -511345,511346l1022696 5c0,-282272 -229073,-511351 -511351,-511351z"/>
  <path class="fil0 str0" d="M3510903 3325718c0,423395 343636,767031 767031,767031 423395,0 767036,-343636 767036,-767031 0,-423396 -343641,-767026 -767036,-767026 -423395,0 -767031,343630 -767031,767026zm511371 0c0,-141118 114537,-255686 255686,-255686 141118,0 255685,114542 255685,255686 0,141123 -114542,255685 -255685,255685 -141149,0 -255686,-114536 -255686,-255685z"/>
  <path class="fil0 str0" d="M2232553 4092749c423395,0 767025,-343636 767025,-767031 0,-423396 -343630,-767026 -767025,-767026 -423401,0 -767036,343630 -767036,767026 0,423395 343635,767031 767036,767031zm0 -1022717c141143,0 255680,114542 255680,255686 -26,141149 -114562,255685 -255680,255685 -141129,0 -255686,-114536 -255686,-255685 0,-141118 114537,-255686 255686,-255686z"/>
 </g>
</svg>
