<?xml version="1.0" encoding="UTF-8"?>
<svg width="125px" height="96px" viewBox="0 0 125 96" version="1.1" xmlns="http://www.w3.org/2000/svg" xmlns:xlink="http://www.w3.org/1999/xlink">
    <!-- Generator: Sketch 52.3 (67297) - http://www.bohemiancoding.com/sketch -->
    <title>blue-bell-with-clouds</title>
    <desc>Created with Sketch.</desc>
    <defs>
        <polygon id="path-1" points="0 0 78.137 0 78.137 28.19 0 28.19"></polygon>
    </defs>
    <g id="Page-1" stroke="none" stroke-width="1" fill="none" fill-rule="evenodd">
        <g id="blue-bell-with-clouds">
            <path d="M79.71,85.827 C84.91,82.981 86.804,76.48 83.943,71.31 L71.312,71.975 L65.115,81.618 C67.975,86.788 74.51,88.674 79.71,85.828" id="Path" fill="#459FED"></path>
            <path d="M107.863,49.883 L96.186,46.514 C95.0928063,46.2002724 94.1688271,45.4654769 93.617,44.471 L92.95,43.266 L92.051,41.644 L85.746,37.169 L87.501,33.417 L86.733,32.029 L81.005,21.683 C73.874,8.793 58.978,2.737 45.214,6.013 C45.08,5.652 44.947,5.289 44.754,4.94 C42.461,0.796 37.23,-0.716 33.071,1.559 C31.0757475,2.64756363 29.5970953,4.48700153 28.9628,6.66958547 C28.3285047,8.8521694 28.5909635,11.1976032 29.692,13.186 C29.886,13.536 30.124,13.837 30.358,14.147 C20.212,23.959 17.388,39.714 24.522,52.604 L26.614,56.387 L34.844,62.953 L31.947,66.025 L36.467,74.188 L37.132,75.393 C37.682,76.386 37.814,77.554 37.495,78.645 L34.109,90.258 C33.044,93.918 36.956,97.032 40.311,95.196 L65.115,81.617 L83.943,71.31 L108.741,57.736 C112.095,55.899 111.542,50.946 107.863,49.883" id="Path" fill="#7FCCF7"></path>
            <path d="M45.31,58.358 L27.705,58.358 L30.247,62.953 L31.947,66.025 L46.857,66.025 C48.391,66.025 49.45,64.472 48.863,63.063 C48.091669,61.2216998 46.8699078,59.6038032 45.31,58.358" id="Path" fill="#4EB7F5"></path>
            <path d="M37.07,49.644 C34.98,49.644 33.016,50.18 31.307,51.118 C29.358,43.825 22.32,38.591 14.187,39.45 C6.981,40.21 1.087,45.916 0.142,53.054 C-0.0902895965,54.7789181 -0.0372481226,56.5303003 0.299,58.238 C0.495,59.23 1.397,59.929 2.415,59.929 L46.09,59.929 C47.625,59.929 48.684,58.377 48.097,56.967 C46.2358837,52.5248841 41.8872323,49.6366949 37.071,49.644" id="Path" fill="#D3EDFF"></path>
            <path d="M56.324,32.5 C55.0544966,34.6891492 54.3872217,37.1753863 54.39,39.706 C54.391,40.776 55.26,41.643 56.332,41.643 L92.052,41.643 L86.994,32.5 L56.324,32.5 Z" id="Path" fill="#4EB7F5"></path>
            <g id="Group" transform="translate(45.963000, 6.596000)">
                <g id="Clipped">
                    <mask id="mask-2" fill="white">
                        <use xlink:href="#path-1"></use>
                    </mask>
                    <g id="b"></g>
                    <path d="M78.138,26.31 C78.138,18.526 71.818,12.216 64.021,12.216 C61.551,12.216 59.23,12.853 57.211,13.967 C55.074,5.93 47.76,0 39.038,0 C30.33,0 23.022,5.914 20.874,13.934 C17.538,12.114 13.386,11.597 9.102,13.081 C3.563,15 -0.005,20.399 0,26.253 C0.001,27.323 0.874,28.19 1.95,28.19 L76.265,28.19 C77.2957287,28.1933197 78.1341408,27.3607268 78.138,26.33 L78.138,26.31 Z" id="Path" fill="#D3EDFF" mask="url(#mask-2)"></path>
                </g>
            </g>
        </g>
    </g>
</svg>
